<svg xmlns="http://www.w3.org/2000/svg" xmlns:xlink="http://www.w3.org/1999/xlink" width="1080" zoomAndPan="magnify" viewBox="0 0 810 809.999993" height="1080" preserveAspectRatio="xMidYMid meet" version="1.0"><path stroke-linecap="butt" transform="matrix(1.4415, 0, 0, 1.441277, -315.591924, 0.00108641)" fill-opacity="1" fill="#000000" fill-rule="nonzero" stroke-linejoin="miter" d="M 448.50072 34.99967 L 478.498769 34.99967 L 479.498704 35.999759 L 497.500243 36.999849 L 511.499332 42.000296 L 518.498876 43.000386 C 541.833402 52.001192 561.000176 65.167682 575.999201 82.499857 C 587.066231 95.099901 595.732334 110.101244 602.000219 127.501176 L 607.999829 152.500704 L 607.999829 183.500769 L 608.999764 187.999817 L 624.50011 186.999727 L 630.49972 184.999548 L 661.500413 184.999548 L 662.998961 186.501038 L 662.998961 319.499394 L 661.999026 320.499484 L 661.999026 330.500379 L 659.999156 335.500827 L 658.999221 345.499012 L 648.999872 374.498898 L 640.000457 391.50042 L 629.001173 407.499142 L 611.500956 425.999444 C 602.233266 434.734643 591.900605 442.399286 580.500263 448.998793 L 545.49983 464.000136 L 528.500936 467.000404 L 524.501196 469.000583 L 475.498964 469.000583 L 443.501046 459.999778 L 418.499962 447.998703 L 400.501133 436.000339 L 377.001307 413.49968 L 360.999638 391.50042 L 348.000483 365.500803 L 348.000483 362.500534 L 343.000809 350.49946 L 342.000874 340.501275 L 339.001069 330.500379 L 338.001134 312.498768 L 337.001199 311.498678 L 337.001199 298.500224 L 338.001134 297.500135 L 338.001134 289.499419 L 340.001004 282.498792 L 340.001004 274.500786 C 341.800345 272.300047 342.466968 268.966415 342.000874 264.499891 L 354.000093 229.499467 L 360.999638 214.500834 L 371.998922 197.499312 L 393.000266 171.001005 L 390.499074 170.000916 L 379.001177 170.000916 L 379.001177 107.499385 C 380.532242 106.699856 380.865554 104.699676 380.001112 101.498848 C 384.133634 88.966561 390.967878 79.133702 400.501133 72.000272 L 418.499962 63.999556 L 445.999528 61.999377 L 446.999463 58.500419 L 446.999463 36.501159 Z M 473.000481 61.999377 L 473.000481 76.00063 L 472.000546 77.00072 L 470.000677 95.999711 C 467.334183 108.000785 463.667755 118.99906 458.998682 128.999955 C 453.665696 141.001029 446.999463 151.999304 438.999983 162.000199 L 405.99942 198.000712 L 386.000721 226.000509 L 371.998922 256.000485 L 366.999247 274.999475 L 364.999378 294.001177 L 363.999443 295.001266 L 363.999443 319.000705 L 365.999313 326.001331 L 366.999247 336.999606 L 370.998987 351.000859 C 377.66793 368.999761 386.667345 384.66783 397.999941 397.999647 C 408.665913 410.000721 421.667778 419.998906 437.000113 427.999623 L 463.001132 439.000608 L 476.000286 442.000876 L 482.999831 442.000876 L 488.999441 444.001055 L 513.000589 444.001055 L 520.000134 442.000876 L 530.999418 441.000787 L 547.001087 436.000339 C 564.999916 428.666349 580.665564 418.998817 594.00074 407.000453 C 606.666582 394.999378 616.999243 380.334109 624.998723 362.999224 L 633.000912 339.999875 L 636.000717 323.001063 L 636.000717 313.000167 L 637.000652 312.000078 L 637.000652 213.999434 L 636.000717 211.999255 L 627.001303 211.999255 L 613.999439 214.999524 L 593.000805 228.000688 L 591.000935 231.000957 L 585.001325 235.998694 L 581.99881 235.998694 L 581.99881 158.999931 L 579.99894 151.999304 L 579.99894 146.998856 L 576.999136 136.000582 L 569.999591 119.999149 L 555.000567 98.999979 C 544.334594 86.332178 531.33273 76.667357 516.000394 70.000093 L 487.999506 61.999377 Z M 429.000634 88.999084 L 418.001349 92.999442 C 411.332407 96.9998 406.999355 103.000337 404.999485 111.001054 L 404.999485 142.001119 L 406.999355 143.001208 C 413.665588 143.667935 418.667973 142.001119 422.001089 138.000761 C 426.667452 134.000403 430.000569 128.999955 432.000439 122.999418 C 430.667192 118.332333 431.000504 115.665428 433.000374 114.998701 L 433.000374 91.999352 Z M 429.000634 88.999084 " stroke="#000000" stroke-width="1" stroke-opacity="1" stroke-miterlimit="4"/><path stroke-linecap="butt" transform="matrix(1.4415, 0, 0, 1.441277, -315.591924, 0.00108641)" fill-opacity="1" fill="#ffffff" fill-rule="nonzero" stroke-linejoin="miter" d="M -0.00126686 -0.00075378 L 999.998717 -0.00075378 L 999.998717 562.000779 L -0.00126686 562.000779 Z M 448.999333 34.99967 L 446.999463 36.999849 L 446.999463 58.999108 L 445.999528 61.999377 L 419.001284 63.999556 L 400.999746 72.000272 C 391.000396 79.334262 384.000851 89.332447 380.001112 102.000248 C 380.667735 104.667153 380.334423 106.667332 379.001177 108.000785 L 379.001177 170.000916 L 391.000396 170.000916 L 393.000266 171.001005 L 371.998922 198.000712 L 360.999638 214.999524 L 354.000093 230.000867 L 342.000874 265.00129 C 342.667497 268.998938 342.000874 272.33257 340.001004 274.999475 L 340.001004 283.000192 L 338.001134 290.000818 L 338.001134 297.998824 L 337.001199 298.998914 L 337.001199 312.000078 L 338.001134 313.000167 L 339.001069 330.999069 L 342.000874 340.999964 L 343.000809 351.000859 L 348.000483 362.999224 L 348.000483 365.999492 L 360.999638 391.99911 L 377.001307 414.00108 L 400.999746 436.000339 L 419.001284 447.998703 L 443.999658 459.999778 L 476.000286 469.000583 L 524.999809 469.000583 L 528.999548 467.000404 L 546.001152 464.000136 L 580.998875 448.998793 C 592.334181 442.334239 602.666842 434.666886 611.999569 425.999444 L 629.001173 408.000542 L 640.000457 391.99911 L 648.999872 375.000298 L 658.999221 346.000412 L 659.999156 335.999516 L 661.999026 330.999069 L 661.999026 321.000884 L 662.998961 320.000794 L 662.998961 186.999727 L 661.999026 184.999548 L 631.001042 184.999548 L 624.998723 186.999727 L 608.999764 187.999817 L 607.999829 183.999459 L 607.999829 152.999393 L 602.000219 127.999865 C 596.000609 110.000964 587.334507 94.999621 575.999201 83.001257 C 561.333488 64.999645 542.332014 51.667829 519.000199 43.000386 L 512.000654 42.000296 L 497.998855 36.999849 L 480.000026 35.999759 L 479.000091 34.99967 Z M 448.999333 34.99967 " stroke="#ffffff" stroke-width="1" stroke-opacity="1" stroke-miterlimit="4"/><path stroke-linecap="butt" transform="matrix(1.4415, 0, 0, 1.441277, -315.591924, 0.00108641)" fill-opacity="1" fill="#ffffff" fill-rule="nonzero" stroke-linejoin="miter" d="M 473.000481 61.999377 L 487.500893 61.999377 L 515.499072 70.000093 C 531.300212 76.867917 544.467377 86.367412 555.000567 98.50129 L 569.999591 119.50046 L 576.999136 135.499182 L 579.99894 146.500167 L 579.99894 151.500614 L 581.99881 158.501241 L 581.99881 235.998694 L 584.500003 235.998694 L 591.000935 231.000957 L 592.499482 228.000688 L 613.500826 214.999524 L 626.49998 211.999255 L 635.499395 211.999255 L 637.000652 213.500745 L 637.000652 311.498678 L 636.000717 312.498768 L 636.000717 322.499663 L 633.000912 339.501185 L 624.998723 362.500534 C 617.06699 379.900466 606.566318 394.733772 593.499417 407.000453 C 580.500263 419.33218 564.834615 428.999712 546.499765 436.000339 L 530.500806 441.000787 L 519.498811 442.000876 L 512.499267 444.001055 L 488.500828 444.001055 L 482.501218 442.000876 L 475.498964 442.000876 L 462.49981 439.000608 L 436.498791 427.999623 C 421.567513 419.93386 408.73366 409.767638 397.999941 397.500957 C 386.534562 384.299233 377.532438 368.633874 370.998987 350.49946 L 366.999247 336.500916 L 365.999313 325.499932 L 363.999443 318.499305 L 363.999443 294.499866 L 364.999378 293.499777 L 366.999247 274.500786 L 371.998922 255.499085 L 386.000721 225.499109 L 405.99942 197.499312 L 438.999983 161.498799 C 446.733898 151.565661 453.400131 140.567386 458.998682 128.501265 C 463.667755 118.50037 467.334183 107.499385 470.000677 95.501021 L 472.000546 76.49932 L 473.000481 75.49923 Z M 428.499311 88.999084 L 433.000374 91.500663 L 433.000374 114.500012 C 431.201033 115.700661 430.867721 118.367567 432.000439 122.500728 C 429.932823 129.100235 426.434405 134.266009 421.499767 138.000761 C 418.499962 141.667756 413.500287 143.334572 406.500743 143.001208 L 404.999485 141.499719 L 404.999485 110.499654 C 407.26763 102.767254 411.432671 96.932043 417.500027 92.999442 Z M 428.499311 88.999084 " stroke="#ffffff" stroke-width="1" stroke-opacity="1" stroke-miterlimit="4"/></svg>